<svg width="102" height="102" viewBox="0 0 102 102" fill="none" xmlns="http://www.w3.org/2000/svg">
<mask id="path-2-inside-1_501_35" fill="white">
<path fill-rule="evenodd" clip-rule="evenodd" d="M69 36H33V81H36V39H66V81H69V36Z"/>
</mask>
<path d="M33 36V35H32V36H33ZM69 36H70V35H69V36ZM33 81H32V82H33V81ZM36 81V82H37V81H36ZM36 39V38H35V39H36ZM66 39H67V38H66V39ZM66 81H65V82H66V81ZM69 81V82H70V81H69ZM33 37H69V35H33V37ZM34 81V36H32V81H34ZM36 80H33V82H36V80ZM37 81V39H35V81H37ZM36 40H66V38H36V40ZM65 39V81H67V39H65ZM69 80H66V82H69V80ZM68 36V81H70V36H68Z" fill="#1B1B1B" mask="url(#path-2-inside-1_501_35)"/>
<mask id="path-4-inside-2_501_35" fill="white">
<path fill-rule="evenodd" clip-rule="evenodd" d="M71 34H31V58H34V37H68V58H71V34Z"/>
</mask>
<path d="M31 34V33H30V34H31ZM71 34H72V33H71V34ZM31 58H30V59H31V58ZM34 58V59H35V58H34ZM34 37V36H33V37H34ZM68 37H69V36H68V37ZM68 58H67V59H68V58ZM71 58V59H72V58H71ZM31 35H71V33H31V35ZM32 58V34H30V58H32ZM34 57H31V59H34V57ZM35 58V37H33V58H35ZM34 38H68V36H34V38ZM67 37V58H69V37H67ZM71 57H68V59H71V57ZM70 34V58H72V34H70Z" fill="#1B1B1B" mask="url(#path-4-inside-2_501_35)"/>
<path d="M55.5 38.5H62C64.4853 38.5 66.5 40.5147 66.5 43V59.0639C66.5 60.3396 65.9586 61.5553 65.0103 62.4087L61.6632 65.4211C61.3471 65.7056 61.1667 66.1109 61.1667 66.5361V72.8639C61.1667 73.2891 61.3471 73.6944 61.6632 73.9789L65.6318 77.5506L63.6249 79.7805L59.6563 76.2087C58.7081 75.3553 58.1667 74.1396 58.1667 72.8639V66.5361C58.1667 65.2604 58.7081 64.0447 59.6563 63.1913L63.0034 60.1789C63.3195 59.8944 63.5 59.4891 63.5 59.0639V43C63.5 42.1716 62.8284 41.5 62 41.5H55.5V38.5Z" stroke="#1B1B1B"/>
<path d="M46.5 38.5H40C37.5147 38.5 35.5 40.5147 35.5 43V59.0639C35.5 60.3396 36.0414 61.5553 36.9897 62.4087L40.3368 65.4211C40.6529 65.7056 40.8333 66.1109 40.8333 66.5361V72.8639C40.8333 73.2891 40.6529 73.6944 40.3368 73.9789L36.3682 77.5506L38.3751 79.7805L42.3437 76.2087C43.2919 75.3553 43.8333 74.1396 43.8333 72.8639V66.5361C43.8333 65.2604 43.2919 64.0447 42.3437 63.1913L38.9966 60.1789C38.6805 59.8944 38.5 59.4891 38.5 59.0639V43C38.5 42.1716 39.1716 41.5 40 41.5H46.5V38.5Z" stroke="#1B1B1B"/>
<rect x="68.5" y="57.5" width="3" height="2" stroke="#1B1B1B"/>
<rect x="38.5" y="31.5" width="25" height="3" stroke="#1B1B1B"/>
<rect x="44.5" y="29.5" width="13" height="2" stroke="#1B1B1B"/>
<rect x="47.5" y="27.5" width="7" height="2" stroke="#1B1B1B"/>
<rect x="49.5" y="21.5" width="3" height="8" stroke="#1B1B1B"/>
<rect x="30.5" y="57.5" width="3" height="2" stroke="#1B1B1B"/>
<rect x="1" y="1" width="100" height="100" rx="50" stroke="#CBCBCB" stroke-dasharray="4 4"/>
</svg>
