<svg width="200" height="200" viewBox="0 0 200 200" fill="none" xmlns="http://www.w3.org/2000/svg">
<rect x="96.5" y="22.5" width="9" height="155" stroke="#1B1B1B"/>
<rect x="98.5" y="22.5" width="5" height="155" stroke="#1B1B1B"/>
<rect x="105.5" y="153.5" width="8" height="19" stroke="#1B1B1B"/>
<rect x="-0.5" y="0.5" width="8" height="19" transform="matrix(-1 0 0 1 96 153)" stroke="#1B1B1B"/>
<rect x="105.5" y="132.5" width="8" height="19" stroke="#1B1B1B"/>
<rect x="-0.5" y="0.5" width="8" height="19" transform="matrix(-1 0 0 1 96 132)" stroke="#1B1B1B"/>
<rect x="105.5" y="111.5" width="8" height="19" stroke="#1B1B1B"/>
<rect x="-0.5" y="0.5" width="8" height="19" transform="matrix(-1 0 0 1 96 111)" stroke="#1B1B1B"/>
<rect x="105.5" y="90.5" width="8" height="19" stroke="#1B1B1B"/>
<rect x="-0.5" y="0.5" width="8" height="19" transform="matrix(-1 0 0 1 96 90)" stroke="#1B1B1B"/>
<rect x="105.5" y="69.5" width="8" height="19" stroke="#1B1B1B"/>
<rect x="-0.5" y="0.5" width="8" height="19" transform="matrix(-1 0 0 1 96 69)" stroke="#1B1B1B"/>
<rect x="105.5" y="48.5" width="8" height="19" stroke="#1B1B1B"/>
<rect x="-0.5" y="0.5" width="8" height="19" transform="matrix(-1 0 0 1 96 48)" stroke="#1B1B1B"/>
<rect x="105.5" y="27.5" width="8" height="19" stroke="#1B1B1B"/>
<rect x="-0.5" y="0.5" width="8" height="19" transform="matrix(-1 0 0 1 96 27)" stroke="#1B1B1B"/>
<rect x="105.5" y="151.5" width="9" height="2" stroke="#1B1B1B"/>
<rect x="-0.5" y="0.5" width="9" height="2" transform="matrix(-1 0 0 1 96 151)" stroke="#1B1B1B"/>
<rect x="105.5" y="130.5" width="9" height="2" stroke="#1B1B1B"/>
<rect x="-0.5" y="0.5" width="9" height="2" transform="matrix(-1 0 0 1 96 130)" stroke="#1B1B1B"/>
<rect x="105.5" y="109.5" width="9" height="2" stroke="#1B1B1B"/>
<rect x="-0.5" y="0.5" width="9" height="2" transform="matrix(-1 0 0 1 96 109)" stroke="#1B1B1B"/>
<rect x="105.5" y="88.5" width="9" height="2" stroke="#1B1B1B"/>
<rect x="113.5" y="57.5" width="15" height="2" stroke="#1B1B1B"/>
<rect x="-0.5" y="0.5" width="12" height="3" transform="matrix(-1 0 0 1 88 57)" stroke="#1B1B1B"/>
<rect x="-0.5" y="0.5" width="12" height="3" transform="matrix(-1 0 0 1 88 140)" stroke="#1B1B1B"/>
<rect x="-0.5" y="0.5" width="12" height="3" transform="matrix(-1 0 0 1 88 98)" stroke="#1B1B1B"/>
<rect x="113.5" y="141.5" width="15" height="2" stroke="#1B1B1B"/>
<rect x="128.5" y="54.5" width="3" height="8" stroke="#1B1B1B"/>
<rect x="128.5" y="138.5" width="3" height="8" stroke="#1B1B1B"/>
<rect x="-0.5" y="0.5" width="9" height="2" transform="matrix(-1 0 0 1 96 88)" stroke="#1B1B1B"/>
<rect x="105.5" y="67.5" width="9" height="2" stroke="#1B1B1B"/>
<rect x="-0.5" y="0.5" width="9" height="2" transform="matrix(-1 0 0 1 96 67)" stroke="#1B1B1B"/>
<rect x="105.5" y="46.5" width="9" height="2" stroke="#1B1B1B"/>
<rect x="-0.5" y="0.5" width="9" height="2" transform="matrix(-1 0 0 1 96 46)" stroke="#1B1B1B"/>
<mask id="path-37-inside-1_401_61" fill="white">
<path fill-rule="evenodd" clip-rule="evenodd" d="M77 66L77 52L68 52L68 55L74 55L74 63L68 63L68 66L77 66Z"/>
</mask>
<path d="M77 52L78 52L78 51L77 51L77 52ZM77 66L77 67L78 67L78 66L77 66ZM68 52L68 51L67 51L67 52L68 52ZM68 55L67 55L67 56L68 56L68 55ZM74 55L75 55L75 54L74 54L74 55ZM74 63L74 64L75 64L75 63L74 63ZM68 63L68 62L67 62L67 63L68 63ZM68 66L67 66L67 67L68 67L68 66ZM76 52L76 66L78 66L78 52L76 52ZM68 53L77 53L77 51L68 51L68 53ZM69 55L69 52L67 52L67 55L69 55ZM68 56L74 56L74 54L68 54L68 56ZM73 55L73 63L75 63L75 55L73 55ZM74 62L68 62L68 64L74 64L74 62ZM69 66L69 63L67 63L67 66L69 66ZM77 65L68 65L68 67L77 67L77 65Z" fill="#1B1B1B" mask="url(#path-37-inside-1_401_61)"/>
<mask id="path-39-inside-2_401_61" fill="white">
<path fill-rule="evenodd" clip-rule="evenodd" d="M77 149L77 135L68 135L68 138L74 138L74 146L68 146L68 149L77 149Z"/>
</mask>
<path d="M77 135L78 135L78 134L77 134L77 135ZM77 149L77 150L78 150L78 149L77 149ZM68 135L68 134L67 134L67 135L68 135ZM68 138L67 138L67 139L68 139L68 138ZM74 138L75 138L75 137L74 137L74 138ZM74 146L74 147L75 147L75 146L74 146ZM68 146L68 145L67 145L67 146L68 146ZM68 149L67 149L67 150L68 150L68 149ZM76 135L76 149L78 149L78 135L76 135ZM68 136L77 136L77 134L68 134L68 136ZM69 138L69 135L67 135L67 138L69 138ZM68 139L74 139L74 137L68 137L68 139ZM73 138L73 146L75 146L75 138L73 138ZM74 145L68 145L68 147L74 147L74 145ZM69 149L69 146L67 146L67 149L69 149ZM77 148L68 148L68 150L77 150L77 148Z" fill="#1B1B1B" mask="url(#path-39-inside-2_401_61)"/>
<mask id="path-41-inside-3_401_61" fill="white">
<path fill-rule="evenodd" clip-rule="evenodd" d="M77 107L77 93L68 93L68 96L74 96L74 104L68 104L68 107L77 107Z"/>
</mask>
<path d="M77 93L78 93L78 92L77 92L77 93ZM77 107L77 108L78 108L78 107L77 107ZM68 93L68 92L67 92L67 93L68 93ZM68 96L67 96L67 97L68 97L68 96ZM74 96L75 96L75 95L74 95L74 96ZM74 104L74 105L75 105L75 104L74 104ZM68 104L68 103L67 103L67 104L68 104ZM68 107L67 107L67 108L68 108L68 107ZM76 93L76 107L78 107L78 93L76 93ZM68 94L77 94L77 92L68 92L68 94ZM69 96L69 93L67 93L67 96L69 96ZM68 97L74 97L74 95L68 95L68 97ZM73 96L73 104L75 104L75 96L73 96ZM74 103L68 103L68 105L74 105L74 103ZM69 107L69 104L67 104L67 107L69 107ZM77 106L68 106L68 108L77 108L77 106Z" fill="#1B1B1B" mask="url(#path-41-inside-3_401_61)"/>
</svg>
