<svg width="200" height="200" viewBox="0 0 200 200" fill="none" xmlns="http://www.w3.org/2000/svg">
<rect x="92.5" y="105.5" width="15" height="3" stroke="#1B1B1B"/>
<rect x="92.5" y="100.5" width="15" height="3" stroke="#1B1B1B"/>
<rect x="89.5" y="79.5" width="21" height="12" stroke="#1B1B1B"/>
<rect x="94.5" y="103.5" width="11" height="2" stroke="#1B1B1B"/>
<rect x="96.5" y="149.5" width="7" height="8" rx="1.5" stroke="#1B1B1B"/>
<rect x="94.5" y="91.5" width="11" height="9" stroke="#1B1B1B"/>
<rect x="91.5" y="36.5" width="2" height="43" stroke="#1B1B1B"/>
<rect x="96.5" y="36.5" width="2" height="43" stroke="#1B1B1B"/>
<rect x="101.5" y="36.5" width="2" height="43" stroke="#1B1B1B"/>
<rect x="106.5" y="36.5" width="2" height="43" stroke="#1B1B1B"/>
<mask id="path-12-inside-1_501_153" fill="white">
<path fill-rule="evenodd" clip-rule="evenodd" d="M106 108H94V116C95.1046 116 96 116.895 96 118C96 119.105 95.1046 120 94 120V136C94 141.831 89.4628 146.603 83.7261 146.976C77.183 146.577 72 141.144 72 134.5C72 130.099 74.2743 126.229 77.7118 124.002C66.799 124.156 58 133.051 58 144C58 155.046 66.9543 164 78 164H122C133.046 164 142 155.046 142 144C142 133.051 133.201 124.156 122.288 124.002C125.726 126.229 128 130.099 128 134.5C128 141.144 122.817 146.577 116.274 146.976C110.537 146.603 106 141.831 106 136V120C104.895 120 104 119.105 104 118C104 116.895 104.895 116 106 116V108Z"/>
</mask>
<path d="M94 108V107H93V108H94ZM106 108H107V107H106V108ZM94 116H93V117H94V116ZM94 120V119H93V120H94ZM83.7261 146.976L83.6652 147.975L83.7282 147.978L83.7912 147.974L83.7261 146.976ZM77.7118 124.002L78.2556 124.841L81.1696 122.953L77.6977 123.002L77.7118 124.002ZM122.288 124.002L122.302 123.002L118.83 122.953L121.744 124.841L122.288 124.002ZM116.274 146.976L116.209 147.974L116.272 147.978L116.335 147.975L116.274 146.976ZM106 120H107V119H106V120ZM106 116V117H107V116H106ZM94 109H106V107H94V109ZM95 116V108H93V116H95ZM97 118C97 116.343 95.6569 115 94 115V117C94.5523 117 95 117.448 95 118H97ZM94 121C95.6569 121 97 119.657 97 118H95C95 118.552 94.5523 119 94 119V121ZM95 136V120H93V136H95ZM83.7912 147.974C90.0503 147.566 95 142.362 95 136H93C93 141.301 88.8753 145.639 83.6611 145.979L83.7912 147.974ZM71 134.5C71 141.676 76.5977 147.543 83.6652 147.975L83.7871 145.978C77.7684 145.611 73 140.612 73 134.5H71ZM77.168 123.163C73.4581 125.567 71 129.746 71 134.5H73C73 130.452 75.0905 126.892 78.2556 124.841L77.168 123.163ZM59 144C59 133.598 67.359 125.148 77.7259 125.002L77.6977 123.002C66.2389 123.164 57 132.503 57 144H59ZM78 163C67.5066 163 59 154.493 59 144H57C57 155.598 66.402 165 78 165V163ZM122 163H78V165H122V163ZM141 144C141 154.493 132.493 163 122 163V165C133.598 165 143 155.598 143 144H141ZM122.274 125.002C132.641 125.148 141 133.598 141 144H143C143 132.503 133.761 123.164 122.302 123.002L122.274 125.002ZM129 134.5C129 129.746 126.542 125.567 122.832 123.163L121.744 124.841C124.909 126.892 127 130.452 127 134.5H129ZM116.335 147.975C123.402 147.543 129 141.676 129 134.5H127C127 140.612 122.232 145.611 116.213 145.978L116.335 147.975ZM105 136C105 142.362 109.95 147.566 116.209 147.974L116.339 145.979C111.125 145.639 107 141.301 107 136H105ZM105 120V136H107V120H105ZM103 118C103 119.657 104.343 121 106 121V119C105.448 119 105 118.552 105 118H103ZM106 115C104.343 115 103 116.343 103 118H105C105 117.448 105.448 117 106 117V115ZM105 108V116H107V108H105Z" fill="#1B1B1B" mask="url(#path-12-inside-1_501_153)"/>
<path d="M80 162H120" stroke="#1B1B1B"/>
<circle cx="106" cy="118" r="2.5" stroke="#1B1B1B"/>
<circle cx="94" cy="118" r="2.5" stroke="#1B1B1B"/>
<path d="M108.5 118.5L124.5 125" stroke="#1B1B1B"/>
<path d="M91.5 118.5L75.5 125" stroke="#1B1B1B"/>
</svg>
