<svg width="78" height="24" viewBox="0 0 78 24" fill="none" xmlns="http://www.w3.org/2000/svg">
<g clip-path="url(#clip0_83_235)">
<path d="M0.500977 23.8056V16.2676H6.01866V17.5077H2.2566V19.4287H5.51705V20.6445H2.2566V22.5898H6.01866V23.8056H0.500977Z" fill="white"/>
<path d="M36.6177 23.8056V16.2676H42.1354V17.5077H38.3733V19.4287H41.6338V20.6445H38.3733V22.5898H42.1354V23.8056H36.6177Z" fill="white"/>
<path d="M43.8904 23.8056V16.2676H49.4081V17.5077H45.646V19.4287H48.9065V20.6445H45.646V22.5898H49.4081V23.8056H43.8904Z" fill="white"/>
<path d="M7.52441 23.8056V16.2676H8.82859L12.5405 21.2037V16.2676H14.2961V23.8056H12.9418L9.28004 18.9424V23.8056H7.52441Z" fill="white"/>
<path d="M28.0908 23.8056V16.2676H29.395L33.1069 21.2037V16.2676H34.8625V23.8056H33.5082L29.8464 18.9424V23.8056H28.0908Z" fill="white"/>
<path d="M15.5503 20.1582C15.5503 16.9971 18.5599 15.5382 22.0712 16.5108V17.7266C19.0615 16.9971 17.3059 17.9698 17.3059 20.1582C17.3059 21.8603 18.8107 23.0762 21.3188 22.3467V20.6445H19.5632V19.4287H22.5728V23.3193C19.0615 25.0214 15.5503 23.3193 15.5503 20.1582Z" fill="white"/>
<path d="M70.4756 20.1582C70.4756 16.9971 73.4852 15.5382 76.9965 16.5108V17.7266C73.9868 16.9971 72.2312 17.9698 72.2312 20.1582C72.2312 21.8603 73.736 23.0762 76.2441 22.3467V20.6445H74.4884V19.4287H77.4981V23.3193C73.9868 25.0214 70.4756 23.3193 70.4756 20.1582Z" fill="white"/>
<path d="M24.5781 23.8056V16.2676H26.0829V23.8056H24.5781Z" fill="white"/>
<path d="M62.45 23.8056V16.2676H63.7541L67.466 21.2037V16.2676H69.2216V23.8056H67.8673L64.2056 18.9424V23.8056H62.45Z" fill="white"/>
<path d="M58.9395 23.8056V16.2676H60.4443V23.8056H58.9395Z" fill="white"/>
<path d="M50.9126 23.8056V16.2676H54.6997C55.9287 16.2676 57.4335 16.9971 57.4335 18.456C57.4335 19.6718 56.9319 20.1582 56.1293 20.6445L57.3833 23.8056H55.7782L54.6245 20.8876H52.6682V23.8056H50.9126ZM52.6682 19.6718H54.1731C55.1763 19.6718 55.6779 19.1855 55.6779 18.456C55.6779 17.9697 55.1763 17.4834 54.1731 17.4834H52.6682V19.6718Z" fill="white"/>
<path d="M0 7.27076C0 -0.510389 8.27653 -0.75355 11.537 0.705416V3.13703C6.7717 1.4349 3.00965 3.38019 3.00965 7.27076C3.00965 10.9182 6.7717 12.134 11.537 10.675V13.1066C4.51447 15.5382 0 11.6477 0 7.27076Z" fill="white"/>
<path d="M13.543 13.8358V0.21875H20.5655C23.5751 0.21875 25.08 2.4072 25.08 4.35249C25.08 6.29778 24.0767 7.51358 22.7224 7.99991L25.0298 13.8358H22.3462L20.2394 8.48623H16.5526V13.8358H13.543ZM16.5526 6.05462H19.5623C21.0671 6.05462 22.0703 5.32513 22.0703 4.35249C22.0703 3.37984 21.0671 2.65036 19.5623 2.65036H16.5275L16.5526 6.05462Z" fill="white"/>
<path d="M40.6306 13.8358V0.21875H43.5399L50.1612 9.0455V0.21875H53.1708V13.8358H50.6628L43.6403 4.49839V13.8358H40.6306Z" fill="white"/>
<path d="M55.4277 13.8358V0.21875H65.9615V2.65036H58.4123V5.56829H64.9583V7.99991H58.4123V11.4042H65.9615V13.8358H55.4277Z" fill="white"/>
<path d="M67.4663 13.3496V10.918C71.9808 12.377 74.9904 11.8907 74.9904 9.94538C74.9904 7.02744 67.4663 8.97273 67.4663 4.10951C67.4663 0.218931 72.4824 0.218931 77.4985 0.705253V3.13686C73.9872 2.65054 70.476 2.16422 70.476 4.10951C70.476 6.54112 78.0001 5.08215 78.0001 9.94538C78.0001 14.3223 72.4824 14.8086 67.4663 13.3496Z" fill="white"/>
<path d="M33.9339 0.21875H30.4979L25.9834 11.5744L26.9866 14.0789H27.6889L32.2033 2.65036L34.3352 7.9999H31.175L30.1969 10.4315H35.2882L36.6426 13.8358H39.3262L33.9339 0.21875Z" fill="white"/>
</g>
<defs>
<clipPath id="clip0_83_235">
<rect width="78" height="24" fill="white"/>
</clipPath>
</defs>
</svg>
