<svg width="932" height="669" viewBox="0 0 932 669" fill="none" xmlns="http://www.w3.org/2000/svg">
<rect width="182.965" height="21.4588" transform="matrix(-1 0 0 1 1053.48 56.3413)" fill="#1B1B1B" stroke="#4F4F4F" stroke-width="2"/>
<rect width="182.965" height="6.77647" transform="matrix(-1 0 0 1 1053.48 36.012)" fill="#1B1B1B" stroke="#4F4F4F" stroke-width="2"/>
<rect width="182.965" height="6.77647" transform="matrix(-1 0 0 1 1053.48 22.459)" fill="#1B1B1B" stroke="#4F4F4F" stroke-width="2"/>
<rect width="9.03529" height="4.51765" transform="matrix(-1 0 0 1 925.859 17.9412)" fill="#1B1B1B" stroke="#4F4F4F" stroke-width="2"/>
<rect width="153.6" height="6.77647" transform="matrix(-1 0 0 1 1038.8 29.2349)" fill="#1B1B1B" stroke="#4F4F4F" stroke-width="2"/>
<rect width="248.471" height="13.5529" transform="matrix(-1 0 0 1 1086.23 42.7881)" fill="#1B1B1B" stroke="#4F4F4F" stroke-width="2"/>
<rect x="1" y="-1" width="107.035" height="62.9882" transform="matrix(-1 0 0 1 109.035 154.6)" fill="#1B1B1B" stroke="#4F4F4F" stroke-width="2"/>
<path d="M905.529 19.0704C905.529 14.7041 901.989 11.1646 897.623 11.1646C893.257 11.1646 889.717 14.7041 889.717 19.0704V22.4587H905.529V19.0704Z" fill="#1B1B1B" stroke="#4F4F4F" stroke-width="2"/>
<path d="M1793.25 77.8H139.788V168.153H1793.25V77.8Z" fill="#1B1B1B" stroke="#4F4F4F" stroke-width="2"/>
<path d="M1793.25 85.7056H139.788V160.247H1793.25V85.7056Z" fill="#1B1B1B" stroke="#4F4F4F" stroke-width="2"/>
<path d="M1793.25 198.647H139.788V221.235H1793.25V198.647Z" stroke="#4F4F4F" stroke-width="2"/>
<rect width="1653.46" height="4.51765" transform="matrix(-1 0 0 1 1793.25 60.8589)" fill="#1B1B1B" stroke="#4F4F4F" stroke-width="2"/>
<rect width="1653.46" height="4.51765" transform="matrix(-1 0 0 1 1793.25 221.235)" fill="#1B1B1B" stroke="#4F4F4F" stroke-width="2"/>
<path d="M236.917 129.753V77.8" stroke="#4F4F4F" stroke-width="2"/>
<path d="M236.917 77.8C236.917 102.75 249.559 122.977 265.153 122.977C280.747 122.977 293.388 102.75 293.388 77.8" stroke="#4F4F4F" stroke-width="2"/>
<path d="M293.388 77.8C293.388 102.75 306.03 122.977 321.624 122.977C337.218 122.977 349.859 102.75 349.859 77.8" stroke="#4F4F4F" stroke-width="2"/>
<path d="M476.353 77.8C476.353 102.75 488.994 122.977 504.588 122.977C520.182 122.977 532.823 102.75 532.823 77.8" stroke="#4F4F4F" stroke-width="2"/>
<path d="M532.823 77.8C532.823 102.75 545.465 122.977 561.059 122.977C576.653 122.977 589.294 102.75 589.294 77.8" stroke="#4F4F4F" stroke-width="2"/>
<path d="M589.294 77.8C589.294 102.75 601.935 122.977 617.529 122.977C633.123 122.977 645.765 102.75 645.765 77.8" stroke="#4F4F4F" stroke-width="2"/>
<path d="M645.765 77.8C645.765 102.75 658.406 122.977 674 122.977C689.594 122.977 702.235 102.75 702.235 77.8" stroke="#4F4F4F" stroke-width="2"/>
<path d="M702.235 77.8C702.235 102.75 714.877 122.977 730.471 122.977C746.065 122.977 758.706 102.75 758.706 77.8" stroke="#4F4F4F" stroke-width="2"/>
<path d="M758.706 77.8C758.706 102.75 771.347 122.977 786.941 122.977C802.535 122.977 815.176 102.75 815.176 77.8" stroke="#4F4F4F" stroke-width="2"/>
<path d="M815.176 77.8C815.176 102.75 827.818 122.977 843.411 122.977C859.005 122.977 871.647 102.75 871.647 77.8" stroke="#4F4F4F" stroke-width="2"/>
<path d="M349.859 77.8C349.859 108.988 362.5 134.271 378.094 134.271C393.688 134.271 406.33 108.988 406.33 77.8" stroke="#4F4F4F" stroke-width="2"/>
<path d="M407.459 77.8C407.459 108.988 422.881 134.271 441.906 134.271C460.931 134.271 476.353 108.988 476.353 77.8" stroke="#4F4F4F" stroke-width="2"/>
<rect width="9.03529" height="176.188" transform="matrix(-1 0 0 1 828.729 54.0815)" fill="#1B1B1B" stroke="#4F4F4F" stroke-width="2"/>
<rect width="9.03529" height="176.188" transform="matrix(-1 0 0 1 690.941 54.0815)" fill="#1B1B1B" stroke="#4F4F4F" stroke-width="2"/>
<rect width="9.03529" height="176.188" transform="matrix(-1 0 0 1 415.364 54.0815)" fill="#1B1B1B" stroke="#4F4F4F" stroke-width="2"/>
<rect width="9.03529" height="176.188" transform="matrix(-1 0 0 1 553.153 54.0815)" fill="#1B1B1B" stroke="#4F4F4F" stroke-width="2"/>
<rect width="9.03529" height="176.188" transform="matrix(-1 0 0 1 277.576 54.0815)" fill="#1B1B1B" stroke="#4F4F4F" stroke-width="2"/>
<rect width="9.03529" height="176.188" transform="matrix(-1 0 0 1 139.788 54.0815)" fill="#1B1B1B" stroke="#4F4F4F" stroke-width="2"/>
<path d="M842.282 42.7882V5.51758" stroke="#4F4F4F" stroke-width="2"/>
<path d="M851.318 42.7882V5.51758" stroke="#4F4F4F" stroke-width="2"/>
<path d="M12.165 142.827L12.165 77.8001L130.753 77.8001L130.753 221.235L71.4591 221.235L12.165 142.827Z" fill="#1B1B1B" stroke="#4F4F4F" stroke-width="2"/>
<path d="M90.0942 68.5835L90.0942 77.7999L12.1648 77.7999L12.1648 57.4705L79.3648 57.4705L90.0942 68.5835Z" fill="#1B1B1B" stroke="#4F4F4F" stroke-width="2"/>
<path d="M931.505 198.647V221.235" stroke="#4F4F4F" stroke-width="2"/>
<path d="M911.176 198.647V221.235" stroke="#4F4F4F" stroke-width="2"/>
<path d="M890.847 198.647V221.235" stroke="#4F4F4F" stroke-width="2"/>
<path d="M870.517 198.647V221.235" stroke="#4F4F4F" stroke-width="2"/>
<path d="M850.188 198.647V221.235" stroke="#4F4F4F" stroke-width="2"/>
<path d="M829.858 198.647V221.235" stroke="#4F4F4F" stroke-width="2"/>
<path d="M809.529 198.647V221.235" stroke="#4F4F4F" stroke-width="2"/>
<path d="M789.199 198.647V221.235" stroke="#4F4F4F" stroke-width="2"/>
<path d="M768.87 198.647V221.235" stroke="#4F4F4F" stroke-width="2"/>
<path d="M748.541 198.647V221.235" stroke="#4F4F4F" stroke-width="2"/>
<path d="M728.211 198.647V221.235" stroke="#4F4F4F" stroke-width="2"/>
<path d="M707.882 198.647V221.235" stroke="#4F4F4F" stroke-width="2"/>
<path d="M667.223 198.647V221.235" stroke="#4F4F4F" stroke-width="2"/>
<path d="M646.893 198.647V221.235" stroke="#4F4F4F" stroke-width="2"/>
<path d="M626.564 198.647V221.235" stroke="#4F4F4F" stroke-width="2"/>
<path d="M606.235 198.647V221.235" stroke="#4F4F4F" stroke-width="2"/>
<path d="M585.906 198.647V221.235" stroke="#4F4F4F" stroke-width="2"/>
<path d="M565.576 198.647V221.235" stroke="#4F4F4F" stroke-width="2"/>
<path d="M524.917 198.647V221.235" stroke="#4F4F4F" stroke-width="2"/>
<path d="M504.588 198.647V221.235" stroke="#4F4F4F" stroke-width="2"/>
<path d="M484.258 198.647V221.235" stroke="#4F4F4F" stroke-width="2"/>
<path d="M463.929 198.647V221.235" stroke="#4F4F4F" stroke-width="2"/>
<path d="M443.6 198.647V221.235" stroke="#4F4F4F" stroke-width="2"/>
<path d="M423.27 198.647V221.235" stroke="#4F4F4F" stroke-width="2"/>
<path d="M402.941 198.647V221.235" stroke="#4F4F4F" stroke-width="2"/>
<path d="M382.611 198.647V221.235" stroke="#4F4F4F" stroke-width="2"/>
<path d="M362.282 198.647V221.235" stroke="#4F4F4F" stroke-width="2"/>
<path d="M341.953 198.647V221.235" stroke="#4F4F4F" stroke-width="2"/>
<path d="M321.623 198.647V221.235" stroke="#4F4F4F" stroke-width="2"/>
<path d="M301.294 198.647V221.235" stroke="#4F4F4F" stroke-width="2"/>
<path d="M280.964 198.647V221.235" stroke="#4F4F4F" stroke-width="2"/>
<path d="M260.635 198.647V221.235" stroke="#4F4F4F" stroke-width="2"/>
<path d="M240.305 198.647V221.235" stroke="#4F4F4F" stroke-width="2"/>
<path d="M219.976 198.647V221.235" stroke="#4F4F4F" stroke-width="2"/>
<path d="M199.646 198.647V221.235" stroke="#4F4F4F" stroke-width="2"/>
<path d="M179.317 198.647V221.235" stroke="#4F4F4F" stroke-width="2"/>
<path d="M158.988 198.647V221.235" stroke="#4F4F4F" stroke-width="2"/>
<path d="M928.117 42.7886V55.2121" stroke="#4F4F4F" stroke-width="2"/>
<path d="M905.529 42.7886V55.2121" stroke="#4F4F4F" stroke-width="2"/>
<path d="M882.941 42.7886V55.2121" stroke="#4F4F4F" stroke-width="2"/>
<path d="M860.353 42.7886V55.2121" stroke="#4F4F4F" stroke-width="2"/>
<path d="M12.7293 69.3293H89.5293" stroke="#4F4F4F" stroke-width="2"/>
<path d="M20.0705 142.177L74.2822 213.329" stroke="#4F4F4F" stroke-width="2"/>
<path d="M12.7293 73.2822H89.5293" stroke="#4F4F4F" stroke-width="2"/>
<rect width="31.6235" height="41.7882" transform="matrix(-1 0 0 1 59.6001 163.635)" fill="#1B1B1B" stroke="#4F4F4F" stroke-width="2"/>
<path d="M27.9766 170.412H59.6001" stroke="#4F4F4F" stroke-width="2"/>
<path d="M27.9766 198.647H59.6001" stroke="#4F4F4F" stroke-width="2"/>
<rect width="22.5882" height="47.4353" transform="matrix(-1 0 0 1 695.447 212.2)" fill="#1B1B1B" stroke="#4F4F4F" stroke-width="2"/>
<rect width="22.5882" height="47.4353" transform="matrix(-1 0 0 1 546.365 212.2)" fill="#1B1B1B" stroke="#4F4F4F" stroke-width="2"/>
<rect width="180.706" height="47.4353" transform="matrix(-1 0 0 1 699.965 235.918)" fill="#1B1B1B" stroke="#4F4F4F" stroke-width="2"/>
<rect width="137.788" height="86.9647" transform="matrix(-1 0 0 1 678.506 574.741)" fill="#1B1B1B" stroke="#4F4F4F" stroke-width="2"/>
<rect width="9.03529" height="97.1294" transform="matrix(-1 0 0 1 687.541 570.223)" fill="#1B1B1B" stroke="#4F4F4F" stroke-width="2"/>
<rect width="9.03529" height="97.1294" transform="matrix(-1 0 0 1 540.718 570.223)" fill="#1B1B1B" stroke="#4F4F4F" stroke-width="2"/>
<rect width="6.77647" height="60.9882" rx="3.38823" transform="matrix(-1 0 0 1 667.212 587.165)" fill="#1B1B1B" stroke="#4F4F4F" stroke-width="2"/>
<rect width="6.77647" height="60.9882" rx="3.38823" transform="matrix(-1 0 0 1 649.141 587.165)" fill="#1B1B1B" stroke="#4F4F4F" stroke-width="2"/>
<rect width="6.77647" height="60.9882" rx="3.38823" transform="matrix(-1 0 0 1 631.07 587.165)" fill="#1B1B1B" stroke="#4F4F4F" stroke-width="2"/>
<rect width="6.77647" height="60.9882" rx="3.38823" transform="matrix(-1 0 0 1 613 587.165)" fill="#1B1B1B" stroke="#4F4F4F" stroke-width="2"/>
<rect width="6.77647" height="60.9882" rx="3.38823" transform="matrix(-1 0 0 1 594.929 587.165)" fill="#1B1B1B" stroke="#4F4F4F" stroke-width="2"/>
<rect width="6.77647" height="60.9882" rx="3.38823" transform="matrix(-1 0 0 1 576.859 587.165)" fill="#1B1B1B" stroke="#4F4F4F" stroke-width="2"/>
<rect width="6.77647" height="60.9882" rx="3.38823" transform="matrix(-1 0 0 1 558.788 587.165)" fill="#1B1B1B" stroke="#4F4F4F" stroke-width="2"/>
<rect width="36.1412" height="5.64706" transform="matrix(-1 0 0 1 702.223 215.588)" fill="#1B1B1B" stroke="#4F4F4F" stroke-width="2"/>
<rect width="22.5882" height="4.51765" transform="matrix(-1 0 0 1 692.059 283.353)" fill="#1B1B1B" stroke="#4F4F4F" stroke-width="2"/>
<rect width="22.5882" height="4.51765" transform="matrix(-1 0 0 1 549.753 283.353)" fill="#1B1B1B" stroke="#4F4F4F" stroke-width="2"/>
<rect width="36.1412" height="5.64706" transform="matrix(-1 0 0 1 553.141 215.588)" fill="#1B1B1B" stroke="#4F4F4F" stroke-width="2"/>
<path d="M584.765 404.2V283.353" stroke="#4F4F4F" stroke-width="2"/>
<path d="M671.729 575.306L614.694 518.27" stroke="#4F4F4F" stroke-width="2"/>
<path d="M548.059 575.306L605.094 518.27" stroke="#4F4F4F" stroke-width="2"/>
<path d="M589.282 404.2V283.353" stroke="#4F4F4F" stroke-width="2"/>
<path d="M673.988 580.388H545.235" stroke="#4F4F4F" stroke-width="2"/>
<path d="M695.447 279.965H523.777" stroke="#4F4F4F" stroke-width="2"/>
<path d="M695.447 276.576H523.777" stroke="#4F4F4F" stroke-width="2"/>
<path d="M695.447 239.305H523.777" stroke="#4F4F4F" stroke-width="2"/>
<path d="M673.988 656.059H545.235" stroke="#4F4F4F" stroke-width="2"/>
<path d="M629.941 404.2V283.353" stroke="#4F4F4F" stroke-width="2"/>
<path d="M606.223 506.976V469.706" stroke="#4F4F4F" stroke-width="2"/>
<path d="M536.2 667.353V570.223" stroke="#4F4F4F" stroke-width="2"/>
<path d="M683.023 667.353V570.223" stroke="#4F4F4F" stroke-width="2"/>
<path d="M634.459 404.2V283.353" stroke="#4F4F4F" stroke-width="2"/>
<path d="M613 506.976V469.706" stroke="#4F4F4F" stroke-width="2"/>
<path d="M609.612 408.718L575.729 408.718V446.778L609.612 471.965L643.494 446.778V408.718L609.612 408.718Z" stroke="#4F4F4F" stroke-width="2"/>
<path d="M609.612 416.623H583.635V442.91L609.612 461.8L635.588 442.91V416.623H609.612Z" stroke="#4F4F4F" stroke-width="2"/>
<rect width="60.9882" height="4.51765" transform="matrix(-1 0 0 1 640.106 404.2)" stroke="#4F4F4F" stroke-width="2"/>
<circle cx="6.77647" cy="6.77647" r="6.77647" transform="matrix(-1 0 0 1 616.388 505.847)" stroke="#4F4F4F" stroke-width="2"/>
<circle cx="3.38823" cy="3.38823" r="3.38823" transform="matrix(-1 0 0 1 613 509.235)" stroke="#4F4F4F" stroke-width="2"/>
<path d="M122.847 204.294L118.329 204.294" stroke="#4F4F4F" stroke-width="2"/>
<path d="M122.847 208.812L118.329 208.812" stroke="#4F4F4F" stroke-width="2"/>
<path d="M122.847 213.329L118.329 213.329" stroke="#4F4F4F" stroke-width="2"/>
<circle cx="2.25882" cy="2.25882" r="2.25882" transform="matrix(-1 0 0 1 37.0117 189.612)" stroke="#4F4F4F" stroke-width="2"/>
<circle cx="2.25882" cy="2.25882" r="2.25882" transform="matrix(-1 0 0 1 122.847 85.7056)" stroke="#4F4F4F" stroke-width="2"/>
<circle cx="2.25882" cy="2.25882" r="2.25882" transform="matrix(-1 0 0 1 111.553 85.7056)" stroke="#4F4F4F" stroke-width="2"/>
<circle cx="2.25882" cy="2.25882" r="2.25882" transform="matrix(-1 0 0 1 24.5879 85.7056)" stroke="#4F4F4F" stroke-width="2"/>
</svg>
